<mxfile host="app.diagrams.net" modified="2023-08-05T15:47:41.673Z" agent="Mozilla/5.0 (Windows NT 10.0; Win64; x64; rv:109.0) Gecko/20100101 Firefox/115.0" etag="v4a0OD0wROJYVIXuTo6Y" version="21.6.6" type="github">
  <diagram name="Page-1" id="Uh0dO-WdqsdPUxrgYzic">
    <mxGraphModel dx="1434" dy="774" grid="1" gridSize="10" guides="1" tooltips="1" connect="1" arrows="1" fold="1" page="1" pageScale="1" pageWidth="850" pageHeight="1100" math="0" shadow="0">
      <root>
        <mxCell id="0" />
        <mxCell id="1" parent="0" />
        <mxCell id="MmqDr_2e7LOKFXjEy8FL-1" value="" style="group" parent="1" vertex="1" connectable="0">
          <mxGeometry x="190" y="260" width="440" height="560" as="geometry" />
        </mxCell>
        <mxCell id="MmqDr_2e7LOKFXjEy8FL-2" value="" style="rounded=0;whiteSpace=wrap;html=1;" parent="MmqDr_2e7LOKFXjEy8FL-1" vertex="1">
          <mxGeometry width="440" height="320" as="geometry" />
        </mxCell>
        <mxCell id="MmqDr_2e7LOKFXjEy8FL-3" value="&lt;h4&gt;ServiceStatusGUI&lt;/h4&gt;" style="text;html=1;strokeColor=none;fillColor=none;align=center;verticalAlign=middle;whiteSpace=wrap;rounded=0;" parent="MmqDr_2e7LOKFXjEy8FL-1" vertex="1">
          <mxGeometry x="178.75" width="82.5" height="48" as="geometry" />
        </mxCell>
        <mxCell id="MmqDr_2e7LOKFXjEy8FL-4" value="" style="ellipse;whiteSpace=wrap;html=1;aspect=fixed;fillColor=#f8cecc;strokeColor=#b85450;" parent="MmqDr_2e7LOKFXjEy8FL-1" vertex="1">
          <mxGeometry x="412.5" y="16" width="12.1875" height="12.1875" as="geometry" />
        </mxCell>
        <mxCell id="MmqDr_2e7LOKFXjEy8FL-5" value="" style="ellipse;whiteSpace=wrap;html=1;aspect=fixed;fillColor=#fff2cc;strokeColor=#d6b656;" parent="MmqDr_2e7LOKFXjEy8FL-1" vertex="1">
          <mxGeometry x="385" y="16" width="12.1875" height="12.1875" as="geometry" />
        </mxCell>
        <mxCell id="MmqDr_2e7LOKFXjEy8FL-6" value="" style="ellipse;whiteSpace=wrap;html=1;aspect=fixed;fillColor=#d5e8d4;strokeColor=#82b366;" parent="MmqDr_2e7LOKFXjEy8FL-1" vertex="1">
          <mxGeometry x="357.5" y="16" width="12.1875" height="12.1875" as="geometry" />
        </mxCell>
        <mxCell id="MmqDr_2e7LOKFXjEy8FL-7" value="" style="group" parent="MmqDr_2e7LOKFXjEy8FL-1" vertex="1" connectable="0">
          <mxGeometry x="10" y="40" width="420" height="520" as="geometry" />
        </mxCell>
        <mxCell id="MmqDr_2e7LOKFXjEy8FL-8" value="" style="rounded=0;whiteSpace=wrap;html=1;container=0;" parent="MmqDr_2e7LOKFXjEy8FL-7" vertex="1">
          <mxGeometry x="193.33333333333334" y="31.428571428571427" width="32.22222222222222" height="31.428571428571427" as="geometry" />
        </mxCell>
        <mxCell id="MmqDr_2e7LOKFXjEy8FL-9" value="" style="rounded=0;whiteSpace=wrap;html=1;container=0;fillColor=#d5e8d4;strokeColor=#82b366;" parent="MmqDr_2e7LOKFXjEy8FL-7" vertex="1">
          <mxGeometry x="193.33333333333334" y="62.857142857142854" width="32.22222222222222" height="31.428571428571427" as="geometry" />
        </mxCell>
        <mxCell id="MmqDr_2e7LOKFXjEy8FL-10" value="" style="rounded=0;whiteSpace=wrap;html=1;container=0;fillColor=#d5e8d4;strokeColor=#82b366;" parent="MmqDr_2e7LOKFXjEy8FL-7" vertex="1">
          <mxGeometry x="193.33333333333334" y="94.28571428571428" width="32.22222222222222" height="31.428571428571427" as="geometry" />
        </mxCell>
        <mxCell id="MmqDr_2e7LOKFXjEy8FL-11" value="" style="rounded=0;whiteSpace=wrap;html=1;container=0;" parent="MmqDr_2e7LOKFXjEy8FL-7" vertex="1">
          <mxGeometry x="193.33333333333334" y="125.71428571428571" width="32.22222222222222" height="31.428571428571427" as="geometry" />
        </mxCell>
        <mxCell id="MmqDr_2e7LOKFXjEy8FL-12" value="" style="rounded=0;whiteSpace=wrap;html=1;container=0;" parent="MmqDr_2e7LOKFXjEy8FL-7" vertex="1">
          <mxGeometry x="193.33333333333334" y="157.14285714285714" width="32.22222222222222" height="31.428571428571427" as="geometry" />
        </mxCell>
        <mxCell id="MmqDr_2e7LOKFXjEy8FL-13" value="" style="rounded=0;whiteSpace=wrap;html=1;container=0;" parent="MmqDr_2e7LOKFXjEy8FL-7" vertex="1">
          <mxGeometry x="225.55555555555557" y="31.428571428571427" width="32.22222222222222" height="31.428571428571427" as="geometry" />
        </mxCell>
        <mxCell id="MmqDr_2e7LOKFXjEy8FL-14" value="" style="rounded=0;whiteSpace=wrap;html=1;container=0;" parent="MmqDr_2e7LOKFXjEy8FL-7" vertex="1">
          <mxGeometry x="225.55555555555557" y="62.857142857142854" width="32.22222222222222" height="31.428571428571427" as="geometry" />
        </mxCell>
        <mxCell id="MmqDr_2e7LOKFXjEy8FL-15" value="" style="rounded=0;whiteSpace=wrap;html=1;container=0;" parent="MmqDr_2e7LOKFXjEy8FL-7" vertex="1">
          <mxGeometry x="225.55555555555557" y="94.28571428571428" width="32.22222222222222" height="31.428571428571427" as="geometry" />
        </mxCell>
        <mxCell id="MmqDr_2e7LOKFXjEy8FL-16" value="" style="rounded=0;whiteSpace=wrap;html=1;container=0;" parent="MmqDr_2e7LOKFXjEy8FL-7" vertex="1">
          <mxGeometry x="225.55555555555557" y="125.71428571428571" width="32.22222222222222" height="31.428571428571427" as="geometry" />
        </mxCell>
        <mxCell id="MmqDr_2e7LOKFXjEy8FL-17" value="" style="rounded=0;whiteSpace=wrap;html=1;container=0;" parent="MmqDr_2e7LOKFXjEy8FL-7" vertex="1">
          <mxGeometry x="225.55555555555557" y="157.14285714285714" width="32.22222222222222" height="31.428571428571427" as="geometry" />
        </mxCell>
        <mxCell id="MmqDr_2e7LOKFXjEy8FL-18" value="" style="rounded=0;whiteSpace=wrap;html=1;container=0;" parent="MmqDr_2e7LOKFXjEy8FL-7" vertex="1">
          <mxGeometry x="128.88888888888889" y="31.428571428571427" width="32.22222222222222" height="31.428571428571427" as="geometry" />
        </mxCell>
        <mxCell id="MmqDr_2e7LOKFXjEy8FL-19" value="" style="rounded=0;whiteSpace=wrap;html=1;container=0;" parent="MmqDr_2e7LOKFXjEy8FL-7" vertex="1">
          <mxGeometry x="128.88888888888889" y="62.857142857142854" width="32.22222222222222" height="31.428571428571427" as="geometry" />
        </mxCell>
        <mxCell id="MmqDr_2e7LOKFXjEy8FL-20" value="" style="rounded=0;whiteSpace=wrap;html=1;container=0;" parent="MmqDr_2e7LOKFXjEy8FL-7" vertex="1">
          <mxGeometry x="128.88888888888889" y="94.28571428571428" width="32.22222222222222" height="31.428571428571427" as="geometry" />
        </mxCell>
        <mxCell id="MmqDr_2e7LOKFXjEy8FL-21" value="" style="rounded=0;whiteSpace=wrap;html=1;container=0;" parent="MmqDr_2e7LOKFXjEy8FL-7" vertex="1">
          <mxGeometry x="128.88888888888889" y="125.71428571428571" width="32.22222222222222" height="31.428571428571427" as="geometry" />
        </mxCell>
        <mxCell id="MmqDr_2e7LOKFXjEy8FL-22" value="" style="rounded=0;whiteSpace=wrap;html=1;container=0;" parent="MmqDr_2e7LOKFXjEy8FL-7" vertex="1">
          <mxGeometry x="128.88888888888889" y="157.14285714285714" width="32.22222222222222" height="31.428571428571427" as="geometry" />
        </mxCell>
        <mxCell id="MmqDr_2e7LOKFXjEy8FL-23" value="" style="rounded=0;whiteSpace=wrap;html=1;container=0;" parent="MmqDr_2e7LOKFXjEy8FL-7" vertex="1">
          <mxGeometry x="161.11111111111111" y="31.428571428571427" width="32.22222222222222" height="31.428571428571427" as="geometry" />
        </mxCell>
        <mxCell id="MmqDr_2e7LOKFXjEy8FL-24" value="" style="rounded=0;whiteSpace=wrap;html=1;container=0;fillColor=#d5e8d4;strokeColor=#82b366;" parent="MmqDr_2e7LOKFXjEy8FL-7" vertex="1">
          <mxGeometry x="161.11111111111111" y="62.857142857142854" width="32.22222222222222" height="31.428571428571427" as="geometry" />
        </mxCell>
        <mxCell id="MmqDr_2e7LOKFXjEy8FL-25" value="" style="rounded=0;whiteSpace=wrap;html=1;container=0;fillColor=#d5e8d4;strokeColor=#82b366;" parent="MmqDr_2e7LOKFXjEy8FL-7" vertex="1">
          <mxGeometry x="161.11111111111111" y="94.28571428571428" width="32.22222222222222" height="31.428571428571427" as="geometry" />
        </mxCell>
        <mxCell id="MmqDr_2e7LOKFXjEy8FL-26" value="" style="rounded=0;whiteSpace=wrap;html=1;container=0;" parent="MmqDr_2e7LOKFXjEy8FL-7" vertex="1">
          <mxGeometry x="161.11111111111111" y="125.71428571428571" width="32.22222222222222" height="31.428571428571427" as="geometry" />
        </mxCell>
        <mxCell id="MmqDr_2e7LOKFXjEy8FL-27" value="" style="rounded=0;whiteSpace=wrap;html=1;container=0;" parent="MmqDr_2e7LOKFXjEy8FL-7" vertex="1">
          <mxGeometry x="161.11111111111111" y="157.14285714285714" width="32.22222222222222" height="31.428571428571427" as="geometry" />
        </mxCell>
        <mxCell id="MmqDr_2e7LOKFXjEy8FL-28" value="" style="rounded=0;whiteSpace=wrap;html=1;container=0;" parent="MmqDr_2e7LOKFXjEy8FL-7" vertex="1">
          <mxGeometry x="64.44444444444444" y="31.428571428571427" width="32.22222222222222" height="31.428571428571427" as="geometry" />
        </mxCell>
        <mxCell id="MmqDr_2e7LOKFXjEy8FL-29" value="" style="rounded=0;whiteSpace=wrap;html=1;container=0;" parent="MmqDr_2e7LOKFXjEy8FL-7" vertex="1">
          <mxGeometry x="64.44444444444444" y="62.857142857142854" width="32.22222222222222" height="31.428571428571427" as="geometry" />
        </mxCell>
        <mxCell id="MmqDr_2e7LOKFXjEy8FL-30" value="" style="rounded=0;whiteSpace=wrap;html=1;container=0;" parent="MmqDr_2e7LOKFXjEy8FL-7" vertex="1">
          <mxGeometry x="64.44444444444444" y="94.28571428571428" width="32.22222222222222" height="31.428571428571427" as="geometry" />
        </mxCell>
        <mxCell id="MmqDr_2e7LOKFXjEy8FL-31" value="" style="rounded=0;whiteSpace=wrap;html=1;container=0;" parent="MmqDr_2e7LOKFXjEy8FL-7" vertex="1">
          <mxGeometry x="64.44444444444444" y="125.71428571428571" width="32.22222222222222" height="31.428571428571427" as="geometry" />
        </mxCell>
        <mxCell id="MmqDr_2e7LOKFXjEy8FL-32" value="" style="rounded=0;whiteSpace=wrap;html=1;container=0;" parent="MmqDr_2e7LOKFXjEy8FL-7" vertex="1">
          <mxGeometry x="64.44444444444444" y="157.14285714285714" width="32.22222222222222" height="31.428571428571427" as="geometry" />
        </mxCell>
        <mxCell id="MmqDr_2e7LOKFXjEy8FL-33" value="" style="rounded=0;whiteSpace=wrap;html=1;container=0;" parent="MmqDr_2e7LOKFXjEy8FL-7" vertex="1">
          <mxGeometry x="96.66666666666667" y="31.428571428571427" width="32.22222222222222" height="31.428571428571427" as="geometry" />
        </mxCell>
        <mxCell id="MmqDr_2e7LOKFXjEy8FL-34" value="" style="rounded=0;whiteSpace=wrap;html=1;container=0;" parent="MmqDr_2e7LOKFXjEy8FL-7" vertex="1">
          <mxGeometry x="96.66666666666667" y="62.857142857142854" width="32.22222222222222" height="31.428571428571427" as="geometry" />
        </mxCell>
        <mxCell id="MmqDr_2e7LOKFXjEy8FL-35" value="" style="rounded=0;whiteSpace=wrap;html=1;container=0;" parent="MmqDr_2e7LOKFXjEy8FL-7" vertex="1">
          <mxGeometry x="96.66666666666667" y="94.28571428571428" width="32.22222222222222" height="31.428571428571427" as="geometry" />
        </mxCell>
        <mxCell id="MmqDr_2e7LOKFXjEy8FL-36" value="" style="rounded=0;whiteSpace=wrap;html=1;container=0;" parent="MmqDr_2e7LOKFXjEy8FL-7" vertex="1">
          <mxGeometry x="96.66666666666667" y="125.71428571428571" width="32.22222222222222" height="31.428571428571427" as="geometry" />
        </mxCell>
        <mxCell id="MmqDr_2e7LOKFXjEy8FL-37" value="" style="rounded=0;whiteSpace=wrap;html=1;container=0;" parent="MmqDr_2e7LOKFXjEy8FL-7" vertex="1">
          <mxGeometry x="96.66666666666667" y="157.14285714285714" width="32.22222222222222" height="31.428571428571427" as="geometry" />
        </mxCell>
        <mxCell id="MmqDr_2e7LOKFXjEy8FL-38" value="" style="rounded=0;whiteSpace=wrap;html=1;container=0;fillColor=#f8cecc;strokeColor=#b85450;" parent="MmqDr_2e7LOKFXjEy8FL-7" vertex="1">
          <mxGeometry x="32.22222222222222" y="31.428571428571427" width="32.22222222222222" height="31.428571428571427" as="geometry" />
        </mxCell>
        <mxCell id="MmqDr_2e7LOKFXjEy8FL-39" value="" style="rounded=0;whiteSpace=wrap;html=1;container=0;" parent="MmqDr_2e7LOKFXjEy8FL-7" vertex="1">
          <mxGeometry x="32.22222222222222" y="62.857142857142854" width="32.22222222222222" height="31.428571428571427" as="geometry" />
        </mxCell>
        <mxCell id="MmqDr_2e7LOKFXjEy8FL-40" value="" style="rounded=0;whiteSpace=wrap;html=1;container=0;" parent="MmqDr_2e7LOKFXjEy8FL-7" vertex="1">
          <mxGeometry x="32.22222222222222" y="94.28571428571428" width="32.22222222222222" height="31.428571428571427" as="geometry" />
        </mxCell>
        <mxCell id="MmqDr_2e7LOKFXjEy8FL-41" value="" style="rounded=0;whiteSpace=wrap;html=1;container=0;" parent="MmqDr_2e7LOKFXjEy8FL-7" vertex="1">
          <mxGeometry x="32.22222222222222" y="125.71428571428571" width="32.22222222222222" height="31.428571428571427" as="geometry" />
        </mxCell>
        <mxCell id="MmqDr_2e7LOKFXjEy8FL-42" value="" style="rounded=0;whiteSpace=wrap;html=1;container=0;" parent="MmqDr_2e7LOKFXjEy8FL-7" vertex="1">
          <mxGeometry x="32.22222222222222" y="157.14285714285714" width="32.22222222222222" height="31.428571428571427" as="geometry" />
        </mxCell>
        <mxCell id="MmqDr_2e7LOKFXjEy8FL-43" value="&lt;pre&gt;&lt;b&gt;&lt;font style=&quot;font-size: 15px;&quot;&gt;1&lt;/font&gt;&lt;/b&gt;&lt;/pre&gt;" style="text;html=1;strokeColor=none;fillColor=none;align=center;verticalAlign=middle;whiteSpace=wrap;rounded=0;container=0;" parent="MmqDr_2e7LOKFXjEy8FL-7" vertex="1">
          <mxGeometry x="64.44444444444444" width="32.22222222222222" height="31.428571428571427" as="geometry" />
        </mxCell>
        <mxCell id="MmqDr_2e7LOKFXjEy8FL-44" value="&lt;b&gt;&lt;font style=&quot;font-size: 15px;&quot;&gt;2&lt;/font&gt;&lt;/b&gt;" style="text;html=1;strokeColor=none;fillColor=none;align=center;verticalAlign=middle;whiteSpace=wrap;rounded=0;container=0;" parent="MmqDr_2e7LOKFXjEy8FL-7" vertex="1">
          <mxGeometry x="96.66666666666667" width="32.22222222222222" height="31.428571428571427" as="geometry" />
        </mxCell>
        <mxCell id="MmqDr_2e7LOKFXjEy8FL-45" value="&lt;font size=&quot;1&quot;&gt;&lt;b style=&quot;font-size: 15px;&quot;&gt;3&lt;/b&gt;&lt;/font&gt;" style="text;html=1;strokeColor=none;fillColor=none;align=center;verticalAlign=middle;whiteSpace=wrap;rounded=0;container=0;" parent="MmqDr_2e7LOKFXjEy8FL-7" vertex="1">
          <mxGeometry x="128.88888888888889" width="32.22222222222222" height="31.428571428571427" as="geometry" />
        </mxCell>
        <mxCell id="MmqDr_2e7LOKFXjEy8FL-46" value="&lt;b style=&quot;font-size: 15px;&quot;&gt;4&lt;/b&gt;" style="text;html=1;strokeColor=none;fillColor=none;align=center;verticalAlign=middle;whiteSpace=wrap;rounded=0;container=0;" parent="MmqDr_2e7LOKFXjEy8FL-7" vertex="1">
          <mxGeometry x="161.11111111111111" width="32.22222222222222" height="31.428571428571427" as="geometry" />
        </mxCell>
        <mxCell id="MmqDr_2e7LOKFXjEy8FL-47" value="&lt;font size=&quot;1&quot;&gt;&lt;b style=&quot;font-size: 15px;&quot;&gt;5&lt;/b&gt;&lt;/font&gt;" style="text;html=1;strokeColor=none;fillColor=none;align=center;verticalAlign=middle;whiteSpace=wrap;rounded=0;container=0;" parent="MmqDr_2e7LOKFXjEy8FL-7" vertex="1">
          <mxGeometry x="193.33333333333334" width="32.22222222222222" height="31.428571428571427" as="geometry" />
        </mxCell>
        <mxCell id="MmqDr_2e7LOKFXjEy8FL-48" value="&lt;font size=&quot;1&quot;&gt;&lt;b style=&quot;font-size: 15px;&quot;&gt;6&lt;/b&gt;&lt;/font&gt;" style="text;html=1;strokeColor=none;fillColor=none;align=center;verticalAlign=middle;whiteSpace=wrap;rounded=0;container=0;" parent="MmqDr_2e7LOKFXjEy8FL-7" vertex="1">
          <mxGeometry x="225.55555555555557" width="32.22222222222222" height="31.428571428571427" as="geometry" />
        </mxCell>
        <mxCell id="MmqDr_2e7LOKFXjEy8FL-49" value="&lt;font size=&quot;1&quot;&gt;&lt;b style=&quot;font-size: 15px;&quot;&gt;7&lt;/b&gt;&lt;/font&gt;" style="text;html=1;strokeColor=none;fillColor=none;align=center;verticalAlign=middle;whiteSpace=wrap;rounded=0;container=0;" parent="MmqDr_2e7LOKFXjEy8FL-7" vertex="1">
          <mxGeometry x="257.77777777777777" width="32.22222222222222" height="31.428571428571427" as="geometry" />
        </mxCell>
        <mxCell id="MmqDr_2e7LOKFXjEy8FL-50" value="&lt;pre&gt;&lt;b&gt;&lt;font style=&quot;font-size: 15px;&quot;&gt;1&lt;/font&gt;&lt;/b&gt;&lt;/pre&gt;" style="text;html=1;strokeColor=none;fillColor=none;align=center;verticalAlign=middle;whiteSpace=wrap;rounded=0;container=0;" parent="MmqDr_2e7LOKFXjEy8FL-7" vertex="1">
          <mxGeometry y="62.857142857142854" width="32.22222222222222" height="31.428571428571427" as="geometry" />
        </mxCell>
        <mxCell id="MmqDr_2e7LOKFXjEy8FL-51" value="&lt;b&gt;&lt;font style=&quot;font-size: 15px;&quot;&gt;2&lt;/font&gt;&lt;/b&gt;" style="text;html=1;strokeColor=none;fillColor=none;align=center;verticalAlign=middle;whiteSpace=wrap;rounded=0;container=0;" parent="MmqDr_2e7LOKFXjEy8FL-7" vertex="1">
          <mxGeometry y="94.28571428571428" width="32.22222222222222" height="31.428571428571427" as="geometry" />
        </mxCell>
        <mxCell id="MmqDr_2e7LOKFXjEy8FL-52" value="&lt;font size=&quot;1&quot;&gt;&lt;b style=&quot;font-size: 15px;&quot;&gt;3&lt;/b&gt;&lt;/font&gt;" style="text;html=1;strokeColor=none;fillColor=none;align=center;verticalAlign=middle;whiteSpace=wrap;rounded=0;container=0;" parent="MmqDr_2e7LOKFXjEy8FL-7" vertex="1">
          <mxGeometry y="125.71428571428571" width="32.22222222222222" height="31.428571428571427" as="geometry" />
        </mxCell>
        <mxCell id="MmqDr_2e7LOKFXjEy8FL-53" value="&lt;b style=&quot;font-size: 15px;&quot;&gt;4&lt;/b&gt;" style="text;html=1;strokeColor=none;fillColor=none;align=center;verticalAlign=middle;whiteSpace=wrap;rounded=0;container=0;" parent="MmqDr_2e7LOKFXjEy8FL-7" vertex="1">
          <mxGeometry y="157.14285714285714" width="32.22222222222222" height="31.428571428571427" as="geometry" />
        </mxCell>
        <mxCell id="MmqDr_2e7LOKFXjEy8FL-54" value="&lt;font size=&quot;1&quot;&gt;&lt;b style=&quot;font-size: 15px;&quot;&gt;5&lt;/b&gt;&lt;/font&gt;" style="text;html=1;strokeColor=none;fillColor=none;align=center;verticalAlign=middle;whiteSpace=wrap;rounded=0;container=0;" parent="MmqDr_2e7LOKFXjEy8FL-7" vertex="1">
          <mxGeometry y="188.57142857142856" width="32.22222222222222" height="31.428571428571427" as="geometry" />
        </mxCell>
        <mxCell id="MmqDr_2e7LOKFXjEy8FL-55" value="" style="rounded=0;whiteSpace=wrap;html=1;container=0;" parent="MmqDr_2e7LOKFXjEy8FL-7" vertex="1">
          <mxGeometry x="257.77777777777777" y="31.428571428571427" width="32.22222222222222" height="31.428571428571427" as="geometry" />
        </mxCell>
        <mxCell id="MmqDr_2e7LOKFXjEy8FL-56" value="" style="rounded=0;whiteSpace=wrap;html=1;container=0;" parent="MmqDr_2e7LOKFXjEy8FL-7" vertex="1">
          <mxGeometry x="257.77777777777777" y="62.857142857142854" width="32.22222222222222" height="31.428571428571427" as="geometry" />
        </mxCell>
        <mxCell id="MmqDr_2e7LOKFXjEy8FL-57" value="" style="rounded=0;whiteSpace=wrap;html=1;container=0;" parent="MmqDr_2e7LOKFXjEy8FL-7" vertex="1">
          <mxGeometry x="257.77777777777777" y="94.28571428571428" width="32.22222222222222" height="31.428571428571427" as="geometry" />
        </mxCell>
        <mxCell id="MmqDr_2e7LOKFXjEy8FL-58" value="" style="rounded=0;whiteSpace=wrap;html=1;container=0;" parent="MmqDr_2e7LOKFXjEy8FL-7" vertex="1">
          <mxGeometry x="257.77777777777777" y="125.71428571428571" width="32.22222222222222" height="31.428571428571427" as="geometry" />
        </mxCell>
        <mxCell id="MmqDr_2e7LOKFXjEy8FL-59" value="" style="rounded=0;whiteSpace=wrap;html=1;container=0;" parent="MmqDr_2e7LOKFXjEy8FL-7" vertex="1">
          <mxGeometry x="257.77777777777777" y="157.14285714285714" width="32.22222222222222" height="31.428571428571427" as="geometry" />
        </mxCell>
        <mxCell id="MmqDr_2e7LOKFXjEy8FL-60" value="" style="rounded=0;whiteSpace=wrap;html=1;container=0;" parent="MmqDr_2e7LOKFXjEy8FL-7" vertex="1">
          <mxGeometry x="193.33333333333334" y="188.57142857142856" width="32.22222222222222" height="31.428571428571427" as="geometry" />
        </mxCell>
        <mxCell id="MmqDr_2e7LOKFXjEy8FL-61" value="" style="rounded=0;whiteSpace=wrap;html=1;container=0;" parent="MmqDr_2e7LOKFXjEy8FL-7" vertex="1">
          <mxGeometry x="225.55555555555557" y="188.57142857142856" width="32.22222222222222" height="31.428571428571427" as="geometry" />
        </mxCell>
        <mxCell id="MmqDr_2e7LOKFXjEy8FL-62" value="" style="rounded=0;whiteSpace=wrap;html=1;container=0;" parent="MmqDr_2e7LOKFXjEy8FL-7" vertex="1">
          <mxGeometry x="128.88888888888889" y="188.57142857142856" width="32.22222222222222" height="31.428571428571427" as="geometry" />
        </mxCell>
        <mxCell id="MmqDr_2e7LOKFXjEy8FL-63" value="" style="rounded=0;whiteSpace=wrap;html=1;container=0;" parent="MmqDr_2e7LOKFXjEy8FL-7" vertex="1">
          <mxGeometry x="161.11111111111111" y="188.57142857142856" width="32.22222222222222" height="31.428571428571427" as="geometry" />
        </mxCell>
        <mxCell id="MmqDr_2e7LOKFXjEy8FL-64" value="" style="rounded=0;whiteSpace=wrap;html=1;container=0;fillColor=#dae8fc;strokeColor=#6c8ebf;" parent="MmqDr_2e7LOKFXjEy8FL-7" vertex="1">
          <mxGeometry x="64.44444444444444" y="188.57142857142856" width="32.22222222222222" height="31.428571428571427" as="geometry" />
        </mxCell>
        <mxCell id="MmqDr_2e7LOKFXjEy8FL-65" value="" style="rounded=0;whiteSpace=wrap;html=1;container=0;fillColor=#dae8fc;strokeColor=#6c8ebf;" parent="MmqDr_2e7LOKFXjEy8FL-7" vertex="1">
          <mxGeometry x="96.66666666666667" y="188.57142857142856" width="32.22222222222222" height="31.428571428571427" as="geometry" />
        </mxCell>
        <mxCell id="MmqDr_2e7LOKFXjEy8FL-66" value="" style="rounded=0;whiteSpace=wrap;html=1;container=0;fillColor=#dae8fc;strokeColor=#6c8ebf;" parent="MmqDr_2e7LOKFXjEy8FL-7" vertex="1">
          <mxGeometry x="32.22222222222222" y="188.57142857142856" width="32.22222222222222" height="31.428571428571427" as="geometry" />
        </mxCell>
        <mxCell id="MmqDr_2e7LOKFXjEy8FL-67" value="" style="rounded=0;whiteSpace=wrap;html=1;container=0;" parent="MmqDr_2e7LOKFXjEy8FL-7" vertex="1">
          <mxGeometry x="257.77777777777777" y="188.57142857142856" width="32.22222222222222" height="31.428571428571427" as="geometry" />
        </mxCell>
        <mxCell id="MmqDr_2e7LOKFXjEy8FL-68" value="&lt;pre&gt;&lt;b&gt;&lt;font style=&quot;font-size: 15px;&quot;&gt;0&lt;/font&gt;&lt;/b&gt;&lt;/pre&gt;" style="text;html=1;strokeColor=none;fillColor=none;align=center;verticalAlign=middle;whiteSpace=wrap;rounded=0;container=0;" parent="MmqDr_2e7LOKFXjEy8FL-7" vertex="1">
          <mxGeometry x="32.22222222222222" width="32.22222222222222" height="31.428571428571427" as="geometry" />
        </mxCell>
        <mxCell id="MmqDr_2e7LOKFXjEy8FL-69" value="&lt;pre&gt;&lt;b&gt;&lt;font style=&quot;font-size: 15px;&quot;&gt;0&lt;/font&gt;&lt;/b&gt;&lt;/pre&gt;" style="text;html=1;strokeColor=none;fillColor=none;align=center;verticalAlign=middle;whiteSpace=wrap;rounded=0;container=0;" parent="MmqDr_2e7LOKFXjEy8FL-7" vertex="1">
          <mxGeometry y="31.428571428571427" width="32.22222222222222" height="31.428571428571427" as="geometry" />
        </mxCell>
        <mxCell id="MmqDr_2e7LOKFXjEy8FL-70" value="&lt;pre&gt;&lt;b&gt;ColdRoom&lt;/b&gt;&lt;/pre&gt;" style="text;html=1;strokeColor=none;fillColor=none;align=center;verticalAlign=middle;whiteSpace=wrap;rounded=0;" parent="MmqDr_2e7LOKFXjEy8FL-7" vertex="1">
          <mxGeometry x="169.16666666666669" y="86.42857142857143" width="48.333333333333336" height="23.57142857142857" as="geometry" />
        </mxCell>
        <mxCell id="MmqDr_2e7LOKFXjEy8FL-71" value="&lt;pre&gt;&lt;b&gt;Indoor&lt;/b&gt;&lt;/pre&gt;" style="text;html=1;strokeColor=none;fillColor=none;align=center;verticalAlign=middle;whiteSpace=wrap;rounded=0;" parent="MmqDr_2e7LOKFXjEy8FL-7" vertex="1">
          <mxGeometry x="56.38888888888889" y="192.5" width="48.333333333333336" height="23.57142857142857" as="geometry" />
        </mxCell>
        <mxCell id="MmqDr_2e7LOKFXjEy8FL-72" value="" style="shape=image;html=1;verticalAlign=top;verticalLabelPosition=bottom;labelBackgroundColor=#ffffff;imageAspect=0;aspect=fixed;image=https://cdn1.iconfinder.com/data/icons/unicons-line-vol-5/24/robot-128.png" parent="MmqDr_2e7LOKFXjEy8FL-7" vertex="1">
          <mxGeometry x="34.44" y="125.71000000000001" width="30" height="30" as="geometry" />
        </mxCell>
        <mxCell id="MmqDr_2e7LOKFXjEy8FL-73" value="" style="html=1;verticalLabelPosition=bottom;align=center;labelBackgroundColor=#ffffff;verticalAlign=top;strokeWidth=2;strokeColor=#000000;shadow=0;dashed=0;shape=mxgraph.ios7.icons.pause;pointerEvents=1;fillColor=#000000;" parent="MmqDr_2e7LOKFXjEy8FL-7" vertex="1">
          <mxGeometry x="64.44" y="110" width="20" height="20" as="geometry" />
        </mxCell>
        <mxCell id="jpO3XTAjxqToSbZ8hE2M-1" value="" style="shape=mxgraph.signs.people.man_2;html=1;pointerEvents=1;fillColor=#000000;strokeColor=none;verticalLabelPosition=bottom;verticalAlign=top;align=center;" parent="MmqDr_2e7LOKFXjEy8FL-7" vertex="1">
          <mxGeometry x="2.9499999999999886" y="230" width="31.49" height="80" as="geometry" />
        </mxCell>
        <mxCell id="MmqDr_2e7LOKFXjEy8FL-74" value="&lt;pre&gt;&lt;b&gt;&lt;font style=&quot;font-size: 17px;&quot;&gt;0.00 Kg&lt;/font&gt;&lt;/b&gt;&lt;/pre&gt;" style="rounded=0;whiteSpace=wrap;html=1;" parent="MmqDr_2e7LOKFXjEy8FL-1" vertex="1">
          <mxGeometry x="310" y="100" width="120" height="20" as="geometry" />
        </mxCell>
        <mxCell id="MmqDr_2e7LOKFXjEy8FL-75" value="&lt;div align=&quot;center&quot;&gt;&lt;h5&gt;CurrentWeight ColdRoom&lt;/h5&gt;&lt;/div&gt;" style="text;html=1;strokeColor=none;fillColor=none;align=center;verticalAlign=middle;whiteSpace=wrap;rounded=0;" parent="MmqDr_2e7LOKFXjEy8FL-1" vertex="1">
          <mxGeometry x="330" y="70" width="80" height="30" as="geometry" />
        </mxCell>
        <mxCell id="MmqDr_2e7LOKFXjEy8FL-76" value="&lt;pre&gt;&lt;b&gt;&lt;font style=&quot;font-size: 17px;&quot;&gt;0&lt;/font&gt;&lt;/b&gt;&lt;/pre&gt;" style="rounded=0;whiteSpace=wrap;html=1;" parent="MmqDr_2e7LOKFXjEy8FL-1" vertex="1">
          <mxGeometry x="310" y="170" width="120" height="20" as="geometry" />
        </mxCell>
        <mxCell id="MmqDr_2e7LOKFXjEy8FL-77" value="&lt;h5&gt;&lt;b&gt;Store request rejected&lt;/b&gt;&lt;/h5&gt;" style="text;html=1;strokeColor=none;fillColor=none;align=center;verticalAlign=middle;whiteSpace=wrap;rounded=0;" parent="MmqDr_2e7LOKFXjEy8FL-1" vertex="1">
          <mxGeometry x="330" y="140" width="80" height="30" as="geometry" />
        </mxCell>
        <mxCell id="vTaibHw8CfQFTqRCgVWP-2" value="" style="shape=image;verticalLabelPosition=bottom;labelBackgroundColor=default;verticalAlign=top;aspect=fixed;imageAspect=0;image=data:image/png,iVBORw0KGgoAAAANSUhEUgAAAC4AAAAwCAYAAABuZUjcAAAFFUlEQVRoQ+2Ya2gUVxTHs4nNdsGABZdY89yUaCWKsfqhflCiDeahFaV+CX5Jaz4UmlZrCBLBmhKkiI/aSsFno4b2Q1sxitpW0GBJGynURjC01JjH5mGEtEaJttVk09+RGQnT3Zl7Z7YFYS8cZnbuOf/zv/975t4760t6SpvvKeWdlCD+f89cQvGE4ooKJErFTqicnJyXent7ryqKqeT2nymelZX1BgxmYvd9Pt9Wrs9hf4XD4alKzByc4kY8Ozu7mFyrsUVYIXYPC2DPYBPYI8yPnYF8BdeIlwF4Ik4JLJuYmNgEgSXYswbBFK53sD+wEfrvJicnJ3F9nt8F2DXs79TU1PLOzk4ZnKvmijhlsBQy+yETNBQ9HIlEmrGuwcHB4VhMMjMz5xG3g/6F2E2UX+qKNUHaxCFdQc1+TmwbxIf8fn+lrnLMVDWxe8FogXyJG/JaxHNzc2eg6g2SXpBkfX19r7lJKjFglYJ1FhEOsuK8pYujRZwX8BAJZksSlFrOZVw34WR/8N7h90eQXw95mUXlpkPcR6L7IE9BqYL+/v4bsbJQCnuZlXdj9F9i0K+YfWB+xf0SnqUrs9apcRK8iv9xrJ4kH9slwfci/TIjl6x+qHsNdTdblB9loMcovWpV8sqKQ+YEoMWQlk3FtuEry+HVyco6DLSe/i34y7qv1JSJs5r0opasApV2yKFQKH18fHwI30aUld1TqTFYWfObUP1tlQAl4kVFRVO6uroeQmYlZL62A2aAJfh9A4kaSMiSp9SIayFuFsJkqAQoEQf0BUCvQ6YEMt8pTPt2fN7HZEeVWk8ivhnb2dPTcyVaPC/0AvB/YraCAwMDvzuRVyIO6HJAT5G4DMV/sAPF91N8XzfINnIfJm4+1zU8G2HnLLMh/xCfCnKcjBfxxSQ+C9ibTOWXCsTXWgkyoA1gHCG2B4xQNAzqXFaXncxqQ7yIhwBsB2w7Sfc5gcbqh9jP9BUyqMXRVKdfDmZN5NjolEOpVDgcBUgmahxADe3t2SQBsXoZPDil4HxrJce7NEpZHYZ4rM3rSYgScfEmaQeXZEDnOKlBWcyhTn+x+pk7ajTiwWBwaiAQuAPxOmJ3O+XQIf4hYJvS0tL8HR0d8hL9q5lrOB3tDHCB1cEslZSUlBnd3d23J/ej9lxIf8+zKqf3SOKUiQO8AuAvDGA5X0Rt5naPbxXKHTWdiN/Msz2xNibjqLuL2ZhLGd2Mm+JGuQwD/CPA5bGAOa6+zCFMNqlpQlKWQ+7N9bwdtUutahvYrVzTUTvfibSW4gb4B1y3QCgDNW/FSiA1Tl8tpNfKALARYk7xgtdFI81gpzFY2XRqVFct5VIxSVIK/dz/SgL5OI5Lo4zOM7B5YGapAmoTZ2ksR7lzTHkJ6j3+EvLSIL0N0u8xO+sowdOqWNrEBZhSOE8i+dAtRSWpTVfNeGHl4/mQyqYzOYkr4ka9X+f6IgOoRqkDuswpuSZiVmGtkJaPFK3mmjhrdg4nuVaIR5jqy7xcDXafcyYr48Am367Tid3PoLdpMTacXROXeFaDQgjLZ1q7lA4D2D02NtbAfysPrGSMfwg+47ksjb/hW+t0trcbkCfiApyXl5cN2U8gIgrKX22zMFnHL/AzjefLuJ+P5XMfZqAbUbnZjcpxqXFrYmp2lZy5DaJB7uVg9ifXBzxro6z2UUqXvRI24z0rHi8iujgJ4rqKefVPKO5VQd34hOK6inn1TyjuVUHd+H8A2KBPT03ve+sAAAAASUVORK5CYII=;" vertex="1" parent="MmqDr_2e7LOKFXjEy8FL-1">
          <mxGeometry x="310" y="199.99999999999994" width="36" height="37.57" as="geometry" />
        </mxCell>
      </root>
    </mxGraphModel>
  </diagram>
</mxfile>
